<svg xmlns="http://www.w3.org/2000/svg" width="110.359" height="24" viewBox="0 0 110.359 24">
  <g id="Grupo_250" data-name="Grupo 250" transform="translate(-1017.641 -1994)">
    <g id="Button" transform="translate(1017.641 1992.311)">
      <g id="Cart_Icon" data-name="Cart Icon" transform="translate(0 3.916)">
        <path id="Shape" d="M15.953,20.661a1.547,1.547,0,0,1-1.164-.51,1.731,1.731,0,0,1-.48-1.222,1.689,1.689,0,0,1,.48-1.21,1.61,1.61,0,0,1,2.329,0,1.689,1.689,0,0,1,.48,1.21,1.731,1.731,0,0,1-.48,1.222A1.547,1.547,0,0,1,15.953,20.661Zm-9.748,0a1.542,1.542,0,0,1-1.163-.51,1.727,1.727,0,0,1-.48-1.222,1.685,1.685,0,0,1,.48-1.21,1.608,1.608,0,0,1,2.328,0,1.685,1.685,0,0,1,.48,1.21,1.727,1.727,0,0,1-.48,1.222A1.543,1.543,0,0,1,6.206,20.661ZM17.917,16.6H4.585a1.046,1.046,0,0,1-.821-.4,1.191,1.191,0,0,1-.252-.926l.571-3.227L3.215,2.986.75,2.179a1.021,1.021,0,0,1-.628-.545A1.226,1.226,0,0,1,.042.779,1.038,1.038,0,0,1,.579.127,1.132,1.132,0,0,1,1.086,0a1.1,1.1,0,0,1,.3.044l3.15,1.043a.969.969,0,0,1,.491.356,1.274,1.274,0,0,1,.24.593l.182,1.8L19.743,5.5a1.019,1.019,0,0,1,.731.451,1.107,1.107,0,0,1,.2.854l-.868,5.173a.991.991,0,0,1-.354.665,1.054,1.054,0,0,1-.7.261H6.115l-.252,1.471H17.917a1.035,1.035,0,0,1,.753.32,1.149,1.149,0,0,1,0,1.59A1.035,1.035,0,0,1,17.917,16.6Z" transform="translate(0 0)" fill="#616161"/>
      </g>
      <text id="Add_to_Cart" data-name="Add to Cart" transform="translate(33.359 20.69)" fill="#616161" font-size="20" font-family="Roboto-Medium, Roboto" font-weight="500"><tspan x="0" y="0">Carrinho</tspan></text>
    </g>
  </g>
</svg>
