<svg xmlns="http://www.w3.org/2000/svg" width="102.166" height="20.408" viewBox="0 0 102.166 20.408">
  <g id="Grupo_252" data-name="Grupo 252" transform="translate(-390.313 -1863.801)">
    <g id="Grupo_251" data-name="Grupo 251">
      <g id="Reviews" transform="translate(390.313 1862.385)">
        <g id="Star" transform="translate(0 1.416)">
          <path id="Shape" d="M20.634,7.767a.374.374,0,0,0-.3-.261L13.648,6.5,10.658.214a.363.363,0,0,0-.662,0L7,6.5.317,7.506a.374.374,0,0,0-.3.261.393.393,0,0,0,.094.393l4.839,4.892L3.808,19.959a.391.391,0,0,0,.147.375.356.356,0,0,0,.389.029L10.326,17.1l5.981,3.261a.359.359,0,0,0,.39-.029.389.389,0,0,0,.147-.375L15.7,13.052,20.541,8.16A.394.394,0,0,0,20.634,7.767Z" transform="translate(0 0)" fill="#bfc4ce"/>
        </g>
        <g id="Star-2" data-name="Star" transform="translate(27.171 1.416)">
          <path id="Shape-2" data-name="Shape" d="M20.634,7.767a.374.374,0,0,0-.3-.261L13.648,6.5,10.658.214a.363.363,0,0,0-.662,0L7,6.5.317,7.506a.374.374,0,0,0-.3.261.393.393,0,0,0,.094.393l4.839,4.892L3.808,19.959a.391.391,0,0,0,.147.375.356.356,0,0,0,.389.029L10.326,17.1l5.981,3.261a.359.359,0,0,0,.39-.029.389.389,0,0,0,.147-.375L15.7,13.052,20.541,8.16A.394.394,0,0,0,20.634,7.767Z" transform="translate(0 0)" fill="#bfc4ce"/>
        </g>
        <g id="Star-3" data-name="Star" transform="translate(54.342 1.416)">
          <path id="Shape-3" data-name="Shape" d="M20.634,7.767a.374.374,0,0,0-.3-.261L13.648,6.5,10.658.214a.363.363,0,0,0-.662,0L7,6.5.317,7.506a.374.374,0,0,0-.3.261.393.393,0,0,0,.094.393l4.839,4.892L3.808,19.959a.391.391,0,0,0,.147.375.356.356,0,0,0,.389.029L10.326,17.1l5.981,3.261a.359.359,0,0,0,.39-.029.389.389,0,0,0,.147-.375L15.7,13.052,20.541,8.16A.394.394,0,0,0,20.634,7.767Z" transform="translate(0 0)" fill="#bfc4ce"/>
        </g>
        <g id="Star-4" data-name="Star" transform="translate(81.513 1.416)">
          <path id="Shape-4" data-name="Shape" d="M20.634,7.767a.374.374,0,0,0-.3-.261L13.648,6.5,10.658.214a.363.363,0,0,0-.662,0L7,6.5.317,7.506a.374.374,0,0,0-.3.261.393.393,0,0,0,.094.393l4.839,4.892L3.808,19.959a.391.391,0,0,0,.147.375.356.356,0,0,0,.389.029L10.326,17.1l5.981,3.261a.359.359,0,0,0,.39-.029.389.389,0,0,0,.147-.375L15.7,13.052,20.541,8.16A.394.394,0,0,0,20.634,7.767Z" transform="translate(0 0)" fill="#bfc4ce"/>
        </g>
      </g>
    </g>
  </g>
</svg>
